<svg id="SvgjsSvg1024" width="288" height="288" xmlns="http://www.w3.org/2000/svg" version="1.1" xmlns:xlink="http://www.w3.org/1999/xlink" xmlns:svgjs="http://svgjs.com/svgjs"><defs id="SvgjsDefs1025"></defs><g id="SvgjsG1026" transform="matrix(0.9167,0,0,0.9167,11.995200000000011,11.995213187217729)"><svg xmlns="http://www.w3.org/2000/svg" data-name="Layer 1" viewBox="0 0 168 168" width="288" height="288"><path fill="#66ccff" d="M84,69.73219a17,17,0,1,0,17,17A17.019,17.019,0,0,0,84,69.73219Zm0,30a13,13,0,1,1,13-13A13.01474,13.01474,0,0,1,84,99.73219Z" class="color0bceb2 svgShape"></path><path fill="#66ccff" d="M84,78.73219a8,8,0,1,0,8,8A8.00917,8.00917,0,0,0,84,78.73219Zm0,12a4,4,0,1,1,4-4A4.00427,4.00427,0,0,1,84,90.73219Z" class="color0bceb2 svgShape"></path><circle cx="2" cy="148.732" r="2" fill="#6666ff" class="color2d4356 svgShape"></circle><path fill="#6666ff" d="M11 146.73219H8a2 2 0 0 0 0 4h3a2 2 0 0 0 0-4zM160 146.73219h-3a2 2 0 0 0 0 4h3a2 2 0 0 0 0-4z" class="color2d4356 svgShape"></path><circle cx="166" cy="148.732" r="2" fill="#6666ff" class="color2d4356 svgShape"></circle><path fill="#66ccff" d="M118.15387 154.73219h-8.30774a2.00641 2.00641 0 0 0 0 4h8.30774a2.00641 2.00641 0 0 0 0-4zM58.15387 154.73219H49.84613a2.00641 2.00641 0 0 0 0 4h8.30774a2.00641 2.00641 0 0 0 0-4zM104 154.73219H64a2 2 0 0 0 0 4H79.94v2H72a2 2 0 0 0 0 4H97a2 2 0 0 0 0-4H88.06v-2H104a2 2 0 0 0 0-4z" class="color0bceb2 svgShape"></path><path fill="#6666ff" d="M150.72131 146.73219H93.55817c3.58185-3.12592 6.78607-7.96411 9.4386-14.13391a41.83951 41.83951 0 0 0 15.0838 3.38684 21.00686 21.00686 0 0 0 3.19-.244A6.99037 6.99037 0 1 0 120 131.73219c0 .06982.00848.13745.0105.20679-4.19385.46912-9.54633-.62854-15.54321-3.06146a100.763 100.763 0 0 0 4.47534-17.20264C132.09521 107.64925 148 98.1197 148 86.73219c0-7.47906-6.86792-14.15405-18.136-18.99786 4.5423-11.39252 4.67877-20.96863-.60913-26.257-8.05328-8.05365-26.03815-3.54565-45.25555 9.97992a100.77865 100.77865 0 0 0-15.31866-8.995 50.44878 50.44878 0 0 1 3.06952-6.10785 7.02434 7.02434 0 1 0-3.26556-2.32709 54.41067 54.41067 0 0 0-3.48541 6.83887c-11.39166-4.5415-20.9668-4.67737-26.25409.61115-9.58051 9.58136-1.3725 33.22546 18.645 56.27686q.352 4.998 1.01123 9.6897c-8.90222-1.658-16.80731-4.15942-22.82562-7.34937-.80444-.42578-1.55908-.86572-2.28461-1.313a7.02061 7.02061 0 1 0-2.77118 2.99133c.99554.63568 2.05017 1.25665 3.18372 1.85681 6.77765 3.5921 15.50433 6.3255 25.3526 8.03809a100.76634 100.76634 0 0 0 4.478 17.21405c-5.53308 2.246-10.51648 3.3537-14.54919 3.14551.00415-.09863.015-.1955.015-.29511a7.02647 7.02647 0 1 0-1.3645 4.13458 22.04046 22.04046 0 0 0 2.28394.11835A41.84559 41.84559 0 0 0 65.003 132.59773c2.65253 6.17 5.85687 11.00848 9.43884 14.13446H17.27869a2.017 2.017 0 1 0 0 4H150.72131a2.017 2.017 0 1 0 0-4zm-23.72131-18a3 3 0 1 1-3 3A3.00328 3.00328 0 0 1 127 128.73219zm-53-102a3 3 0 1 1-3 3A3.00328 3.00328 0 0 1 74 26.73219zm-47 72a3 3 0 1 1 3-3A3.00328 3.00328 0 0 1 27 98.73219zm15 36a3 3 0 1 1 3-3A3.00328 3.00328 0 0 1 42 134.73219zm58.78772-7.47748a98.90816 98.90816 0 0 1-13.32977-7.77216q3.77655-2.84995 7.56952-6.14081 4.99823-.3522 9.69031-1.01166A98.95967 98.95967 0 0 1 100.78772 127.25471zM84.002 117.0251q-2.18143-1.60629-4.37054-3.35907c1.44775.03979 2.90234.06616 4.36859.06616 1.47131 0 2.92413-.02716 4.36792-.06641Q86.18311 115.41783 84.002 117.0251zm21.41644-8.87463q-2.6716.40558-5.45294.71173 1.56866-1.4859 3.12634-3.03821c1.03943-1.03943 2.04663-2.085 3.03894-3.13275Q105.82477 105.474 105.4184 108.15047zM144 86.73219c0 8.98212-14.26477 16.95929-34.40216 20.71771q.6557-4.687 1.01208-9.69574A115.98812 115.98812 0 0 0 128.277 71.39589C137.994 75.50008 144 80.90456 144 86.73219zM126.42676 44.30543c4.12048 4.12115 3.69495 12.18945-.27362 21.96216a115.992 115.992 0 0 0-31.13092-6.14539Q91.237 56.835 87.45093 53.982C104.34772 42.401 120.07471 37.95619 126.42676 44.30543zM57 86.73219c0 1.47.0271 2.92157.06628 4.36407C41.28979 71.4211 34.24969 51.6302 41.57324 44.30543c4.12164-4.12164 12.19-3.69629 21.96277.27258C59.3681 56.02748 57 70.86659 57 86.73219zm4 0c0-15.089 2.29315-29.52643 6.2243-40.522A98.97818 98.97818 0 0 1 80.549 53.98128 150.00444 150.00444 0 0 0 64.9082 67.6404a1.99979 1.99979 0 0 0 2.82813 2.82813 143.45885 143.45885 0 0 1 16.264-14.02673q2.17831 1.60428 4.36407 3.35675c-1.44263-.03918-2.89423-.06635-4.36438-.06635a2 2 0 0 0 0 4c3.19092 0 6.33075.1048 9.40332.29944q3.46518 3.05237 6.86035 6.43689a1.99979 1.99979 0 0 0 2.82813-2.82812c-1.03943-1.03943-2.0849-2.04657-3.13257-3.03888a110.40822 110.40822 0 0 1 24.56653 5.34436 110.41264 110.41264 0 0 1-13.592 21.15039c.03918-1.4425.06628-2.894.06628-4.36407a2 2 0 0 0-4 0q0 4.78638-.29944 9.40326-3.05228 3.46527-6.43689 6.86041c-2.25641 2.25647-4.55084 4.40192-6.86115 6.437q-4.60849.292-9.40253.29938c-3.17017 0-6.31244-.10968-9.4082-.30615-2.30829-2.03333-4.60089-4.17566-6.85547-6.43018q-3.38425-3.38425-6.43689-6.86041Q61.00748 91.5266 61 86.73219zm.86926 15.959c.99231 1.04773 1.99951 2.09332 3.03894 3.13275q1.55438 1.55447 3.12238 3.03448-2.76736-.304-5.44885-.70734Q62.17569 105.47615 61.86926 102.69124zm1.41193 9.6333q4.71808.66092 9.69623 1.02155 3.78177 3.28427 7.56494 6.13715a99.085 99.085 0 0 1-13.32745 7.77863A98.953 98.953 0 0 1 63.28119 112.32454zm5.38416 18.689a100.87053 100.87053 0 0 0 15.33435-9.0097 100.86238 100.86238 0 0 0 15.33472 9.01025C95.23053 140.7281 89.8269 146.73219 84 146.73219S72.76929 140.72792 68.66534 131.01356zM48.05289 14.06506a3 3 0 1 0-3.05243-2.94664A3.00344 3.00344 0 0 0 48.05289 14.06506zm-.07934-4.4993A1.5 1.5 0 1 1 46.50023 11.092 1.50148 1.50148 0 0 1 47.97355 9.56576zM149.97137 44.39886a2 2 0 1 0 2 2A2.00229 2.00229 0 0 0 149.97137 44.39886zm0 3a1 1 0 1 1 1-1A1.001 1.001 0 0 1 149.97137 47.39886zM4.66667 10.06553a2 2 0 1 0 2 2A2.00229 2.00229 0 0 0 4.66667 10.06553zm0 3a1 1 0 1 1 1-1A1.001 1.001 0 0 1 4.66667 13.06553zM148.97137 3.39886a2 2 0 1 0 2 2A2.00229 2.00229 0 0 0 148.97137 3.39886zm0 3a1 1 0 1 1 1-1A1.001 1.001 0 0 1 148.97137 6.39886zM27.33333 37.73219a2 2 0 1 0-2 2A2.00229 2.00229 0 0 0 27.33333 37.73219zm-3 0a1 1 0 1 1 1 1A1.001 1.001 0 0 1 24.33333 37.73219z" class="color2d4356 svgShape"></path><polygon fill="#66ccff" points="10.888 67.743 12.375 65.788 11.436 65.256 10.481 67.446 10.45 67.446 9.48 65.271 8.525 65.819 9.996 67.728 9.996 67.759 7.695 67.462 7.695 68.526 10.011 68.229 10.011 68.26 8.525 70.168 9.416 70.732 10.434 68.526 10.465 68.526 11.404 70.716 12.39 70.153 10.888 68.275 10.888 68.244 13.25 68.526 13.25 67.462 10.888 67.775 10.888 67.743" class="color0bceb2 svgShape"></polygon><polygon fill="#66ccff" points="116.748 26.451 115.891 27.55 116.405 27.875 116.991 26.604 117.009 26.604 117.549 27.865 118.117 27.541 117.252 26.46 117.252 26.442 118.613 26.604 118.613 25.991 117.252 26.171 117.252 26.154 118.109 25.027 117.568 24.721 117.018 25.982 117 25.982 116.442 24.73 115.891 25.045 116.739 26.145 116.739 26.163 115.414 25.991 115.414 26.604 116.748 26.433 116.748 26.451" class="color0bceb2 svgShape"></polygon><polygon fill="#66ccff" points="165.65 23.675 165.65 22.632 163.333 22.938 163.333 22.908 164.792 20.99 163.871 20.468 162.935 22.616 162.903 22.616 161.953 20.483 161.015 21.02 162.459 22.893 162.459 22.923 160.202 22.632 160.202 23.675 162.474 23.384 162.474 23.414 161.015 25.286 161.89 25.839 162.888 23.675 162.918 23.675 163.839 25.824 164.807 25.271 163.333 23.429 163.333 23.399 165.65 23.675" class="color0bceb2 svgShape"></polygon><polygon fill="#66ccff" points="98.667 5.372 99.925 3.718 99.13 3.268 98.323 5.121 98.296 5.121 97.476 3.281 96.667 3.744 97.912 5.36 97.912 5.386 95.965 5.134 95.965 6.034 97.925 5.783 97.925 5.81 96.667 7.424 97.422 7.901 98.283 6.034 98.309 6.034 99.103 7.888 99.938 7.411 98.667 5.822 98.667 5.796 100.665 6.034 100.665 5.134 98.667 5.399 98.667 5.372" class="color0bceb2 svgShape"></polygon></svg></g></svg>